# AST/ASF file generated using VICON BodyLanguage
# -----------------------------------------------
:version 1.10
:name VICON
:units
  mass 1.0
  length 0.45
  angle deg
:documentation
   .ast/.asf automatically generated from VICON data using
   VICON BodyBuilder and BodyLanguage model FoxedUp or BRILLIANT.MOD
:root
   order TX TY TZ RX RY RZ
   axis XYZ
   position 0 0 0  
   orientation 0 0 0 
:bonedata
  begin
     id 1 
     name lhipjoint
     direction 0.671379 -0.66392 0.329334 
     length 2.38647 
     axis 0 0 0  XYZ
  end
  begin
     id 2 
     name lfemur
     direction 0.34202 -0.939693 0  
     length 6.48179  
     axis 0 0 20  XYZ
    dof rx ry rz
    limits (-160.0 20.0)
           (-70.0 70.0)
           (-60.0 70.0)
  end
  begin
     id 3 
     name ltibia
     direction 0.34202 -0.939693 0   
     length 6.86524   
     axis 0 0 20   XYZ
    dof rx
    limits (-10.0 170.0)
  end
  begin
     id 4 
     name lfoot
     direction 0.204886 -0.562919 0.800715   
     length 1.73031   
     axis -90 7.62852e-016 20   XYZ
    dof rx rz
    limits (-45.0 90.0)
           (-70.0 20.0)
  end
  begin
     id 5 
     name ltoes
     direction 1.53548e-011 -4.21841e-011 1   
     length 0.828161   
     axis -90 7.62852e-016 20   XYZ
    dof rx
    limits (-90.0 20.0)
  end
  begin
     id 6 
     name rhipjoint
     direction -0.662732 -0.670855 0.332775   
     length 2.3618  
     axis 0 0 0  XYZ 
  end
  begin
     id 7 
     name rfemur
     direction -0.34202 -0.939693 0   
     length 6.3025   
     axis 0 0 -20   XYZ
    dof rx ry rz
    limits (-160.0 20.0)
           (-70.0 70.0)
           (-70.0 60.0)
  end
  begin
     id 8 
     name rtibia
     direction -0.34202 -0.939693 0   
     length 6.8732   
     axis 0 0 -20   XYZ
    dof rx
    limits (-10.0 170.0)
 end
 begin
     id 9 
     name rfoot
     direction -0.173856 -0.477665 0.861168   
     length 1.54784  
     axis -90 -7.62852e-016 -20   XYZ
    dof rx rz
    limits (-45.0 90.0)
           (-20.0 70.0)
  end
  begin
     id 10 
     name rtoes
     direction -1.53562e-011 -4.21802e-011 1   
     length 0.759618   
     axis -90 -7.62852e-016 -20   XYZ
    dof rx
    limits (-90.0 20.0)
  end
  begin
     id 11 
     name lowerback
     direction -0.0278357 0.999497 -0.0151789   
     length 1.97203   
     axis 0 0 0   XYZ
    dof rx ry rz
    limits (-20.0 45.0)
           (-30.0 30.0)
           (-30.0 30.0)
  end
  begin
     id 12 
     name upperback
     direction -0.00360622 0.997542 0.0699804   
     length 1.94709   
     axis 0 0 0   XYZ
    dof rx ry rz
    limits (-20.0 45.0)
           (-30.0 30.0)
           (-30.0 30.0)
  end
  begin
     id 13 
     name thorax
     direction 0.00907706 0.997048 0.0762461   
     length 1.95722   
     axis 0 0 0   XYZ
    dof rx ry rz
    limits (-20.0 45.0)
           (-30.0 30.0)
           (-30.0 30.0)
  end
  begin
     id 14 
     name lowerneck
     direction -0.0481835 0.99872 -0.0153927   
     length 1.63078   
     axis 0 0 0   XYZ
    dof rx ry rz
    limits (-20.0 45.0)
           (-30.0 30.0)
           (-30.0 30.0)
  end
  begin
     id 15 
     name upperneck
     direction 0.0859716 0.979226 -0.183644   
     length 1.62591   
     axis 0 0 0   XYZ
    dof rx ry rz
    limits (-20.0 45.0)
           (-30.0 30.0)
           (-30.0 30.0)
  end
  begin
     id 16
     name head
     direction 0.0324821 0.997629 -0.0606773  
     length 1.64811  
     axis 0 0 0   XYZ
    dof rx ry rz
    limits (-20.0 45.0)
           (-30.0 30.0)
           (-30.0 30.0)
  end
  begin
     id 17 
     name lclavicle
     direction 0.939609 0.311019 0.142835  
     length 3.70647  
     axis 0 0 0   XYZ
    dof ry rz
    limits (-20.0 10.0)
           (0.0 20.0)
  end
  begin
     id 18 
     name lhumerus
     direction 1 -4.48963e-011 -1.59838e-027   
     length 4.59207   
     axis 180 -30 -90   XYZ
    dof rx ry rz
    limits (-60.0 90.0)
           (-90.0 90.0)
           (-90.0 90.0)
  end
  begin
     id 19
     name lradius
     direction 1 -4.48957e-011 -1.3483e-026   
     length 2.98109   
     axis 180 -30 -90   XYZ
    dof rx
    limits (-10.0 170.0)
  end
  begin
     id 20
     name lwrist
     direction 1 -4.48954e-011 -3.11579e-026   
     length 1.49055   
     axis 2.00652e-014 90 90   XYZ
    dof ry
    limits (-180.0 0.0)
 end
  begin
     id 21 
     name lhand
     direction 1 -4.4911e-011 -6.23158e-026   
     length 0.480203   
     axis 3.97628e-014 90 90   XYZ
    dof rx rz
    limits (-90.0 90.0)
           (-45.0 45.0)
  end
  begin
     id 22 
     name lfingers
     direction 1 -4.48893e-011 -1.24632e-025   
     length 0.387152   
     axis 7.95256e-014 90 90   XYZ
    dof rx
    limits (0.0 90.0)
  end
  begin
     id 23
     name lthumb
     direction 0.707107 -6.35013e-011 0.707107   
     length 0.555875   
     axis -90 45 2.85299e-015   XYZ
    dof rx rz
    limits (-45.0 45.0)
           (-45.0 45.0)
  end
  begin
     id 24 
     name rclavicle
     direction -0.950396 0.30392 0.0661859   
     length 3.70894  
     axis 0 0 0   XYZ 
    dof ry rz
    limits (-10.0 20.0)
           (-20.0 0.0)
  end
  begin
     id 25 
     name rhumerus
     direction -1 -4.48957e-011 -2.96677e-027  
     length 4.76508   
     axis 180 30 90   XYZ
    dof rx ry rz
    limits (-90.0 60.0)
           (-90.0 90.0)
           (-90.0 90.0)
  end
  begin
     id 26 
     name rradius
     direction -1 -4.48974e-011 -1.44501e-026   
     length 2.78902   
     axis 180 30 90   XYZ
    dof rx
    limits (-10.0 170.0)
  end
  begin
     id 27 
     name rwrist
     direction -1 -4.48978e-011 -3.11579e-026   
     length 1.39451   
     axis 2.00652e-014 -90 -90   XYZ
    dof ry
    limits (-180.0 0.0)
  end
  begin
     id 28
     name rhand
     direction -1 -4.48956e-011 -6.23158e-026   
     length 0.721303   
     axis 3.97628e-014 -90 -90   XYZ
    dof rx rz
    limits (-90.0 90.0)
           (-45.0 45.0)
  end
  begin
     id 29
     name rfingers
     direction -1 -4.4899e-011 -1.24632e-025   
     length 0.581533   
     axis 7.95256e-014 -90 -90   XYZ
    dof rx
    limits (0.0 90.0)
  end
  begin
     id 30
     name rthumb
     direction -0.707107 -6.34911e-011 0.707107   
     length 0.834968   
     axis -90 -45 -2.85299e-015   XYZ
    dof rx rz
    limits (-45.0 45.0)
           (-45.0 45.0)
  end
:hierarchy
  begin
    root lhipjoint rhipjoint lowerback
    lhipjoint lfemur
    lfemur ltibia
    ltibia lfoot
    lfoot ltoes
    rhipjoint rfemur
    rfemur rtibia
    rtibia rfoot
    rfoot rtoes
    lowerback upperback
    upperback thorax
    thorax lowerneck lclavicle rclavicle
    lowerneck upperneck
    upperneck head
    lclavicle lhumerus
    lhumerus lradius
    lradius lwrist
    lwrist lhand lthumb
    lhand lfingers
    rclavicle rhumerus
    rhumerus rradius
    rradius rwrist
    rwrist rhand rthumb
    rhand rfingers
  end

#!OML:ASF I:\salsa\salsa 7_09\Patient 1\Session 1\dancerfemale.ASF
:FULLY-SPECIFIED
:DEGREES
1208
root 5.90366 16.3629 11.8042 -700.895 582.414 -359.056
lowerback -6.29615 6.34019 -6.50145
upperback -9.05251 8.07994 6.52317
thorax -8.16619 4.4841 10.6184
lowerneck 20.0469 -20.9075 -11.0403
upperneck -42.8609 -26.8715 32.1398
head -10.0905 -16.0879 16.8524
rclavicle -1.7672e-013 -7.31528e-014
rhumerus 63.6047 9.9042 -68.7647
rradius 110.586
rwrist -58.3461
rhand -20.8088 338.216
rfingers 7.12502
rthumb 5.55892 308.308
lclavicle -1.7672e-013 -7.31528e-014
lhumerus -49.4112 2.91984 92.983
lradius 123.659
lwrist 0.925866
lhand -31.9166 51.1298
lfingers 7.12502
lthumb -5.16816 81.0468
rfemur -16.5778 -18.2508 31.3702
rtibia 20.638
rfoot -10.224 -13.6643
rtoes -26.8101
lfemur -51.6408 19.7351 -29.0872
ltibia 50.9047
lfoot -9.30293 31.4029
ltoes -28.776
1209
root 5.81268 16.334 11.8648 -700.094 589.194 -358.893
lowerback -6.26185 6.42985 -6.47328
upperback -10.3312 8.14419 6.58448
thorax -9.68993 4.59948 10.642
lowerneck 19.0794 -20.607 -9.66983
upperneck -44.1149 -26.2214 30.8834
head -11.1112 -15.5954 16.6534
rclavicle -2.50469e-014 -1.90833e-014
rhumerus 66.072 7.62505 -66.4453
rradius 110.703
rwrist -58.4257
rhand -24.0331 339.56
rfingers 7.12502
rthumb 2.44543 309.595
lclavicle -2.50469e-014 -1.90833e-014
lhumerus -51.1306 2.44216 92.8604
lradius 123.38
lwrist 0.628434
lhand -32.477 51.3484
lfingers 7.12502
lthumb -5.70927 81.2515
rfemur -18.0654 -19.6477 33.0227
rtibia 21.5415
rfoot -10.5479 -17.3579
rtoes -26.0936
lfemur -54.0155 20.7661 -30.8064
ltibia 51.5986
lfoot -7.37763 37.1388
ltoes -25.9986
1210
root 5.69978 16.3085 11.9329 -700.09 596.296 -358.345
lowerback -5.57807 6.69925 -5.77384
upperback -11.742 8.44582 6.455
thorax -11.6818 4.76997 9.98319
lowerneck 17.2035 -20.6186 -8.61755
upperneck -43.5431 -26.054 28.8977
head -11.2094 -15.2196 15.4814
rclavicle 3.18055e-015 7.95139e-015
rhumerus 67.9904 5.19556 -63.8543
rradius 110.601
rwrist -58.3626
rhand -27.4995 341.991
rfingers 7.12502
rthumb -0.902541 312.013
lclavicle 3.18055e-015 7.95139e-015
lhumerus -53.1716 1.44083 92.8681
lradius 123.191
lwrist 0.350297
lhand -32.879 51.6888
lfingers 7.12502
lthumb -6.09741 81.581
rfemur -19.3074 -20.4463 34.6659
rtibia 22.8653
rfoot -11.1136 -21.7616
rtoes -25.6307
lfemur -55.626 20.9096 -32.0876
ltibia 52.022
lfoot -6.29322 42.4572
ltoes -21.5011
1211
root 5.57052 16.2841 11.9961 -699.277 603.084 -359.626
lowerback -4.47491 6.92658 -5.84762
upperback -12.7619 8.74946 5.9439
thorax -13.5758 4.99251 9.27748
lowerneck 15.8986 -20.2531 -7.22037
upperneck -43.7998 -25.4024 27.0998
head -11.8675 -14.6785 14.751
rclavicle 9.62118e-014 9.38264e-014
rhumerus 69.9346 2.86413 -61.4023
rradius 110.268
rwrist -57.5025
rhand -30.3891 345.291
rfingers 7.12502
rthumb -3.69318 315.343
lclavicle 9.62118e-014 9.38264e-014
lhumerus -55.0258 0.283538 92.5766
lradius 123.128
lwrist 0.244435
lhand -33.0706 52.0541
lfingers 7.12502
lthumb -6.28238 81.941
rfemur -19.8116 -21.1111 34.8366
rtibia 24.4244
rfoot -11.8387 -26.1256
rtoes -25.7324
lfemur -55.7458 20.1109 -33.6999
ltibia 52.1866
lfoot -6.61253 45.4919
ltoes -15.5437
1212
root 5.43098 16.2677 12.0576 -694.778 609.492 -365.258
lowerback -3.09993 6.96295 -7.22909
upperback -13.5263 8.7429 5.14224
thorax -15.5227 5.20799 8.96289
lowerneck 15.8117 -19.2253 -5.93506
upperneck -44.9026 -23.9398 25.554
head -13.229 -13.7621 14.6068
rclavicle -3.06128e-014 -3.02153e-014
rhumerus 71.9963 1.10467 -59.1869
rradius 109.745
rwrist -56.4435
rhand -33.039 349.671
rfingers 7.12502
rthumb -6.25189 319.783
lclavicle -3.06128e-014 -3.02153e-014
lhumerus -56.7064 -0.665808 92.1595
lradius 123.112
lwrist 0.266188
lhand -33.1464 52.0982
lfingers 7.12502
lthumb -6.35553 81.9829
rfemur -19.7829 -21.8297 33.2989
rtibia 26.0981
rfoot -12.9859 -30.1652
rtoes -24.501
lfemur -54.5874 18.2532 -36.0579
ltibia 52.1266
lfoot -4.46609 46.5161
ltoes -6.96714
1213
root 5.27293 16.251 12.1189 -689.274 615.685 -371.317
lowerback -2.13528 7.04895 -7.57225
upperback -14.3105 8.7826 4.43425
thorax -17.0925 5.29208 8.19568
lowerneck 14.209 -18.3626 -3.97866
upperneck -44.0895 -22.5589 23.1321
head -13.6762 -12.9382 13.2481
rclavicle -7.196e-014 2.22639e-014
rhumerus 74.1762 -0.11256 -57.4658
rradius 109.005
rwrist -55.3888
rhand -35.1186 356.377
rfingers 7.12502
rthumb -8.25924 326.559
lclavicle -7.196e-014 2.22639e-014
lhumerus -58.2312 -1.47172 91.0397
lradius 123.308
lwrist 0.563312
lhand -33.1041 51.7713
lfingers 7.12502
lthumb -6.31473 81.6572
rfemur -19.8838 -22.2004 32.8119
rtibia 27.907
rfoot -14.3 -33.4023
rtoes -21.757
lfemur -53.6815 16.7847 -37.4708
ltibia 52.0997
lfoot -1.81651 44.5412
ltoes -11.7824
1214
root 5.08346 16.244 12.1861 -681.329 621.677 -379.334
lowerback -1.85393 7.18052 -6.947
upperback -15.0664 8.94721 3.83083
thorax -18.0346 5.26917 7.05867
lowerneck 11.911 -17.2668 -1.36569
upperneck -42.765 -20.8643 20.2674
head -13.8769 -12.0482 11.3793
rclavicle 5.20816e-014 4.92986e-014
rhumerus 76.546 -0.882608 -56.1394
rradius 108.216
rwrist -54.305
rhand -36.8799 364.12
rfingers 7.12502
rthumb -9.95876 334.376
lclavicle 5.20816e-014 4.92986e-014
lhumerus -59.2751 -2.20585 89.7383
lradius 123.434
lwrist 0.973337
lhand -33.3994 52.0607
lfingers 7.12502
lthumb -6.59978 81.9379
rfemur -20.1215 -22.3424 33.1885
rtibia 29.7976
rfoot -15.9737 -35.5701
rtoes -16.4206
lfemur -53.0324 15.668 -38.0699
ltibia 52.1347
lfoot -3.01885 41.1889
ltoes -21.2881
1215
root 4.88275 16.2422 12.2551 -646.326 626.738 -414.347
lowerback -1.83116 7.39187 -6.33556
upperback -15.812 9.21818 3.10337
thorax -18.7983 5.26397 5.79069
lowerneck 9.9015 -15.957 0.782481
upperneck -41.1828 -18.9524 17.7655
head -13.7584 -11.0928 9.61004
rclavicle -1.27222e-014 -4.6118e-014
rhumerus 78.639 -1.5262 -54.6389
rradius 107.33
rwrist -53.4072
rhand -38.3692 373.572
rfingers 7.12502
rthumb -11.3953 343.902
lclavicle -1.27222e-014 -4.6118e-014
lhumerus -60.3159 -3.04254 88.4714
lradius 123.739
lwrist 1.4285
lhand -33.9258 52.8021
lfingers 7.12502
lthumb -7.10791 82.6628
rfemur -20.3279 -22.5593 33.4762
rtibia 31.8025
rfoot -16.9649 -36.566
rtoes -11.3018
lfemur -52.1351 14.1072 -38.2047
ltibia 52.0537
lfoot -5.81357 40.0092
ltoes -25.2985
1216
root 4.66961 16.2263 12.3237 -731.833 634.481 -328.796
lowerback -2.12824 7.63078 -5.706
upperback -16.5336 9.54291 2.44772
thorax -19.3421 5.27423 4.6269
lowerneck 7.95422 -14.3867 2.14405
upperneck -39.0243 -16.6819 15.9838
head -13.0871 -10.0002 8.05559
rclavicle 2.70347e-014 4.77083e-015
rhumerus 80.6845 -1.62571 -53.0018
rradius 106.262
rwrist -52.526
rhand -38.7798 383.188
rfingers 7.12502
rthumb -11.7913 353.54
lclavicle 2.70347e-014 4.77083e-015
lhumerus -61.075 -3.57787 87.2067
lradius 124.088
lwrist 1.61105
lhand -34.0817 52.6097
lfingers 7.12502
lthumb -7.2584 82.4652
rfemur -20.6977 -23.0377 33.9075
rtibia 34.2399
rfoot -16.831 -36.1873
rtoes -7.16618
lfemur -51.1871 12.2984 -37.827
ltibia 51.8261
lfoot -7.19569 39.3292
ltoes -28.9831
1217
root 4.44315 16.2112 12.3881 -717.629 639.245 -343.008
lowerback -2.6023 7.98242 -6.14529
upperback -17.0864 9.93976 1.58364
thorax -19.7611 5.45398 3.7966
lowerneck 5.87351 -12.8378 3.99511
upperneck -36.5814 -14.5792 13.8998
head -12.2653 -8.96807 6.33914
rclavicle 4.37326e-014 2.22639e-014
rhumerus 82.6351 -1.43339 -51.2484
rradius 104.904
rwrist -51.2999
rhand -37.999 391.603
rfingers 7.12502
rthumb -11.0383 361.913
lclavicle 4.37326e-014 2.22639e-014
lhumerus -61.5211 -3.92379 85.8166
lradius 124.587
lwrist 1.68631
lhand -33.9885 51.6403
lfingers 7.12502
lthumb -7.16843 81.4989
rfemur -20.9683 -23.066 33.2106
rtibia 37.164
rfoot -16.4184 -35.0011
rtoes -1.94702
lfemur -49.8041 10.8277 -38.1763
ltibia 51.3297
lfoot -7.79872 38.191
ltoes -31.6353
1218
root 4.21455 16.1882 12.4636 -715.311 643.969 -345.366
lowerback -3.15008 8.36778 -7.04864
upperback -17.4323 10.3597 0.63095
thorax -19.9425 5.70374 3.11814
lowerneck 3.5102 -11.5618 6.25237
upperneck -33.9635 -13.2053 11.0848
head -11.3103 -8.18452 4.4127
rclavicle 3.26007e-014 2.62396e-014
rhumerus 84.6487 -1.05173 -49.4853
rradius 103.389
rwrist -50.0414
rhand -36.619 398.616
rfingers 7.12502
rthumb -9.70707 368.86
lclavicle 3.26007e-014 2.62396e-014
lhumerus -61.2176 -4.17057 84.6833
lradius 124.836
lwrist 1.45152
lhand -34.4402 51.2759
lfingers 7.12502
lthumb -7.60443 81.1192
rfemur -21.2038 -22.9395 31.5721
rtibia 40.366
rfoot -14.6666 -32.9705
rtoes 2.95484
lfemur -48.0676 9.2887 -38.8573
ltibia 50.8232
lfoot -8.7904 37.1253
ltoes -32.7245
1219
root 4.00273 16.1513 12.5399 -713.358 648.854 -347.731
lowerback -3.08091 8.83998 -7.20005
upperback -17.7168 10.9205 -0.433952
thorax -20.228 5.87629 1.81476
lowerneck 1.34433 -10.3413 7.72501
upperneck -30.9875 -11.9773 8.84672
head -10.0861 -7.42153 2.90955
rclavicle -1.05157e-013 -7.27552e-014
rhumerus 86.2167 -0.934858 -47.7626
rradius 101.807
rwrist -48.7507
rhand -34.8621 403.7
rfingers 7.12502
rthumb -8.01164 373.872
lclavicle -1.05157e-013 -7.27552e-014
lhumerus -60.4518 -4.49482 83.6226
lradius 125.04
lwrist 0.91792
lhand -35.5898 51.5276
lfingers 7.12502
lthumb -8.71401 81.3277
rfemur -20.9591 -22.7042 29.9304
rtibia 43.5348
rfoot -12.3998 -30.0226
rtoes 8.17123
lfemur -46.0259 7.6286 -38.8524
ltibia 50.491
lfoot -9.9488 35.9507
ltoes -31.9877
1220
root 3.81096 16.1045 12.6136 -711.748 654.034 -350.088
lowerback -2.44454 9.33823 -6.55958
upperback -17.9333 11.5428 -1.57797
thorax -20.5294 5.92994 -0.0660156
lowerneck -0.304911 -9.11056 8.86648
upperneck -28.4129 -10.6428 7.24675
head -9.0366 -6.64254 1.82558
rclavicle -1.16985e-013 -1.04958e-013
rhumerus 87.6182 -0.418489 -46.1279
rradius 99.9787
rwrist -46.9242
rhand -33.0463 407.111
rfingers 7.12502
rthumb -6.2589 377.223
lclavicle -1.16985e-013 -1.04958e-013
lhumerus -59.3527 -5.11367 82.7533
lradius 125.177
lwrist 0.317164
lhand -35.6212 50.5447
lfingers 7.12502
lthumb -8.74429 80.3436
rfemur -20.458 -22.8881 28.6296
rtibia 46.4413
rfoot -7.87737 -26.0774
rtoes 8.06073
lfemur -43.8746 5.8533 -38.3174
ltibia 50.5128
lfoot -10.5072 34.5096
ltoes -29.9487
